<svg width="33" height="26" viewBox="0 0 33 26" fill="none" xmlns="http://www.w3.org/2000/svg">
<path d="M21.0157 22C21.0157 23.6569 22.3589 25 24.0157 25C25.6726 25 27.0157 23.6569 27.0157 22C27.0157 20.3431 25.6726 19 24.0157 19C22.3589 19 21.0157 20.3431 21.0157 22ZM21.0157 22H12.0157M12.0157 22C12.0157 23.6569 10.6726 25 9.01575 25C7.35889 25 6.01575 23.6569 6.01575 22C6.01575 20.3431 7.35889 19 9.01575 19C10.6726 19 12.0157 20.3431 12.0157 22ZM6.01575 21.958C4.37025 21.877 3.34575 21.6325 2.61375 20.902C1.88175 20.1715 1.63875 19.1455 1.55775 17.5M27.0157 21.958C28.6612 21.877 29.6857 21.6325 30.4177 20.902C31.5157 19.8025 31.5157 18.0355 31.5157 14.5V11.5M31.5157 11.5H24.4657C23.3482 11.5 22.7902 11.5 22.3387 11.353C21.8885 11.2067 21.4793 10.9559 21.1446 10.6212C20.8098 10.2864 20.559 9.87723 20.4127 9.427C20.2657 8.9755 20.2657 8.4175 20.2657 7.3C20.2657 5.6245 20.2657 4.7875 20.0452 4.1095C19.8258 3.43416 19.4496 2.82035 18.9475 2.31823C18.4454 1.81611 17.8316 1.43995 17.1562 1.2205C16.4782 1 15.6412 1 13.9657 1H1.51575M31.5157 11.5L29.6017 7.945C28.5667 6.022 28.0492 5.0605 27.1597 4.531C26.2717 4 25.1812 4 22.9972 4H20.2657M1.51575 7H10.5157M1.51575 11.5H7.51575" stroke="#808080" stroke-width="1.8" stroke-linecap="round" stroke-linejoin="round"/>
</svg>
