<svg width="27" height="27" viewBox="0 0 27 27" fill="none" xmlns="http://www.w3.org/2000/svg">
<path d="M22.4332 6.83053L23.3017 6.59442L23.3017 6.59435L22.4332 6.83053ZM21.5129 4.31586L22.2365 3.78071L22.2356 3.77947L21.5129 4.31586ZM20.0526 3.19986L19.7242 4.03781L19.7251 4.03816L20.0526 3.19986ZM4.37264 6.83053L3.50418 6.59435L3.50416 6.59442L4.37264 6.83053ZM5.29296 4.31586L4.57026 3.77947L4.56934 3.78072L5.29296 4.31586ZM6.75323 3.19986L7.08072 4.03816L7.08163 4.03781L6.75323 3.19986ZM10.7431 1.63719V0.737192V1.63719ZM16.0628 1.63719V0.737192V1.63719ZM8.98317 14.9705C8.98317 14.4735 8.58023 14.0705 8.08317 14.0705C7.58612 14.0705 7.18317 14.4735 7.18317 14.9705H8.08317H8.98317ZM7.18317 20.3039C7.18317 20.8009 7.58612 21.2039 8.08317 21.2039C8.58023 21.2039 8.98317 20.8009 8.98317 20.3039H8.08317H7.18317ZM19.6227 14.9705C19.6227 14.4735 19.2197 14.0705 18.7227 14.0705C18.2256 14.0705 17.8227 14.4735 17.8227 14.9705H18.7227H19.6227ZM17.8227 20.3039C17.8227 20.8009 18.2256 21.2039 18.7227 21.2039C19.2197 21.2039 19.6227 20.8009 19.6227 20.3039H18.7227H17.8227ZM14.3029 14.9705C14.3029 14.4735 13.9 14.0705 13.4029 14.0705C12.9059 14.0705 12.5029 14.4735 12.5029 14.9705H13.4029H14.3029ZM12.5029 20.3039C12.5029 20.8009 12.9059 21.2039 13.4029 21.2039C13.9 21.2039 14.3029 20.8009 14.3029 20.3039H13.4029H12.5029ZM3.4558 19.3593C3.33548 18.8771 2.84699 18.5836 2.36471 18.704C1.88244 18.8243 1.58901 19.3128 1.70933 19.795L2.58257 19.5772L3.4558 19.3593ZM4.75303 24.7905L4.19761 25.4987L4.19858 25.4995L4.75303 24.7905ZM22.0542 24.7905L22.6082 25.4998L22.6096 25.4987L22.0542 24.7905ZM24.2233 19.5772L23.3501 19.3594L23.35 19.3597L24.2233 19.5772ZM24.738 11.1759L25.4484 10.6233L25.4481 10.6229L24.738 11.1759ZM2.06921 11.1759L2.77907 11.7291L2.77928 11.7288L2.06921 11.1759ZM0.656282 15.1112C0.733999 15.6022 1.19499 15.9372 1.68593 15.8595C2.17688 15.7817 2.51186 15.3207 2.43414 14.8298L1.54521 14.9705L0.656282 15.1112ZM23.3775 10.3039L24.246 10.0678L23.3017 6.59442L22.4332 6.83053L21.5647 7.06663L22.509 10.54L23.3775 10.3039ZM22.4332 6.83053L23.3017 6.59435C22.9575 5.32852 22.7352 4.455 22.2365 3.78072L21.5129 4.31586L20.7893 4.851C21.0381 5.18738 21.1802 5.65253 21.5648 7.0667L22.4332 6.83053ZM21.5129 4.31586L22.2356 3.77947C21.7624 3.14185 21.1194 2.65036 20.3801 2.36155L20.0526 3.19986L19.7251 4.03816C20.149 4.20376 20.5182 4.48577 20.7902 4.85224L21.5129 4.31586ZM20.0526 3.19986L20.381 2.36191C19.599 2.05544 18.6987 2.07053 17.3928 2.07053V2.97053V3.87053C18.8531 3.87053 19.3359 3.88561 19.7242 4.03781L20.0526 3.19986ZM3.42838 10.3039L4.29686 10.54L5.24112 7.06663L4.37264 6.83053L3.50416 6.59442L2.55991 10.0678L3.42838 10.3039ZM4.37264 6.83053L5.2411 7.0667C5.62568 5.65253 5.76781 5.18738 6.01658 4.851L5.29296 4.31586L4.56934 3.78072C4.07068 4.455 3.84842 5.32852 3.50418 6.59435L4.37264 6.83053ZM5.29296 4.31586L6.01566 4.85224C6.28765 4.48577 6.65682 4.20376 7.08072 4.03816L6.75323 3.19986L6.42575 2.36155C5.68645 2.65036 5.0435 3.14185 4.57026 3.77947L5.29296 4.31586ZM6.75323 3.19986L7.08163 4.03781C7.46998 3.88561 7.95279 3.87053 9.41311 3.87053V2.97053V2.07053C8.10717 2.07053 7.20684 2.05544 6.42484 2.36191L6.75323 3.19986ZM9.41311 2.97053H10.3131C10.3131 2.85486 10.359 2.74439 10.4399 2.6633L9.80264 2.02772L9.16544 1.39213C8.7475 1.81114 8.51311 2.37895 8.51311 2.97053H9.41311ZM9.80264 2.02772L10.4399 2.6633C10.5207 2.58229 10.6298 2.53719 10.7431 2.53719V1.63719V0.737192C10.1509 0.737192 9.58346 0.973047 9.16544 1.39213L9.80264 2.02772ZM10.7431 1.63719V2.53719H16.0628V1.63719V0.737192H10.7431V1.63719ZM16.0628 1.63719V2.53719C16.1761 2.53719 16.2852 2.58229 16.366 2.6633L17.0032 2.02772L17.6404 1.39213C17.2224 0.973047 16.655 0.737192 16.0628 0.737192V1.63719ZM17.0032 2.02772L16.366 2.6633C16.4469 2.74439 16.4928 2.85486 16.4928 2.97053H17.3928H18.2928C18.2928 2.37895 18.0584 1.81114 17.6404 1.39213L17.0032 2.02772ZM17.3928 2.97053H16.4928C16.4928 3.08619 16.4469 3.19666 16.366 3.27775L17.0032 3.91333L17.6404 4.54892C18.0584 4.12991 18.2928 3.5621 18.2928 2.97053H17.3928ZM17.0032 3.91333L16.366 3.27775C16.2852 3.35876 16.1761 3.40386 16.0628 3.40386V4.30386V5.20386C16.655 5.20386 17.2224 4.968 17.6404 4.54892L17.0032 3.91333ZM16.0628 4.30386V3.40386H10.7431V4.30386V5.20386H16.0628V4.30386ZM10.7431 4.30386V3.40386C10.6298 3.40386 10.5207 3.35876 10.4399 3.27775L9.80264 3.91333L9.16544 4.54892C9.58345 4.968 10.1509 5.20386 10.7431 5.20386V4.30386ZM9.80264 3.91333L10.4399 3.27775C10.359 3.19666 10.3131 3.08619 10.3131 2.97053H9.41311H8.51311C8.51311 3.5621 8.7475 4.12991 9.16544 4.54892L9.80264 3.91333ZM8.08317 14.9705H7.18317V20.3039H8.08317H8.98317V14.9705H8.08317ZM18.7227 14.9705H17.8227V20.3039H18.7227H19.6227V14.9705H18.7227ZM13.4029 14.9705H12.5029V20.3039H13.4029H14.3029V14.9705H13.4029ZM2.58257 19.5772L1.70933 19.795C2.06712 21.2292 2.35319 22.3818 2.69332 23.277C3.04197 24.1946 3.48032 24.9361 4.19761 25.4987L4.75303 24.7905L5.30844 24.0823C4.94449 23.7969 4.66069 23.3871 4.37595 22.6377C4.0827 21.8659 3.82416 20.8358 3.4558 19.3593L2.58257 19.5772ZM4.75303 24.7905L4.19858 25.4995C4.91715 26.0614 5.74191 26.3083 6.71536 26.425C7.66464 26.5387 8.84992 26.5372 10.3241 26.5372V25.6372V24.7372C8.80601 24.7372 7.74701 24.7357 6.92947 24.6377C6.13609 24.5427 5.67148 24.3663 5.30748 24.0816L4.75303 24.7905ZM10.3241 25.6372V26.5372H16.4818V25.6372V24.7372H10.3241V25.6372ZM16.4818 25.6372V26.5372C17.956 26.5372 19.1413 26.5387 20.0907 26.425C21.0643 26.3084 21.8892 26.0615 22.6082 25.4998L22.0542 24.7905L21.5002 24.0813C21.1353 24.3663 20.6701 24.5427 19.8766 24.6377C19.0589 24.7357 17.9999 24.7372 16.4818 24.7372V25.6372ZM22.0542 24.7905L22.6096 25.4987C23.3269 24.9361 23.7653 24.1946 24.1138 23.2769C24.4538 22.3816 24.7395 21.2289 25.0967 19.7947L24.2233 19.5772L23.35 19.3597C22.9824 20.8361 22.7241 21.8661 22.4311 22.6378C22.1465 23.3871 21.8627 23.7969 21.4988 24.0823L22.0542 24.7905ZM24.2233 19.5772L25.0966 19.795C25.6603 17.5344 26.1091 15.7442 26.2528 14.3284C26.399 12.8894 26.2518 11.6561 25.4484 10.6233L24.738 11.1759L24.0277 11.7285C24.4212 12.2343 24.5872 12.9136 24.4621 14.1466C24.3345 15.4029 23.9275 17.044 23.3501 19.3594L24.2233 19.5772ZM24.738 11.1759L25.4481 10.6229C24.6433 9.58949 23.4839 9.14619 22.0544 8.93885C20.6487 8.73494 18.8067 8.73719 16.4831 8.73719V9.63719V10.5372C18.8635 10.5372 20.5499 10.5394 21.796 10.7202C23.0185 10.8975 23.6345 11.2236 24.028 11.7288L24.738 11.1759ZM16.4831 9.63719V8.73719H10.3241V9.63719V10.5372H16.4831V9.63719ZM10.3241 9.63719V8.73719C7.99993 8.73719 6.15791 8.73494 4.75232 8.93885C3.32293 9.14621 2.16385 9.58956 1.35914 10.6229L2.06921 11.1759L2.77928 11.7288C3.17284 11.2235 3.78857 10.8975 5.01074 10.7202C6.25672 10.5394 7.94303 10.5372 10.3241 10.5372V9.63719ZM2.06921 11.1759L1.35935 10.6226C0.4149 11.8344 0.373416 13.3244 0.656282 15.1112L1.54521 14.9705L2.43414 14.8298C2.16907 13.1554 2.31644 12.3227 2.77907 11.7291L2.06921 11.1759Z" fill="#808080"/>
</svg>
