<svg width="27" height="26" viewBox="0 0 27 26" fill="none" xmlns="http://www.w3.org/2000/svg">
<path d="M4.24094 20.6152C4.24094 20.6152 6.91574 17.2 13.5157 17.2C20.1157 17.2 22.7917 20.6152 22.7917 20.6152M13.5157 1C6.88815 1 1.51575 6.3724 1.51575 13C1.51575 19.6276 6.88815 25 13.5157 25C20.1433 25 25.5157 19.6276 25.5157 13C25.5157 6.3724 20.1433 1 13.5157 1ZM13.5157 13C14.4705 13 15.3862 12.6207 16.0613 11.9456C16.7365 11.2705 17.1157 10.3548 17.1157 9.4C17.1157 8.44522 16.7365 7.52955 16.0613 6.85442C15.3862 6.17928 14.4705 5.8 13.5157 5.8C12.561 5.8 11.6453 6.17928 10.9702 6.85442C10.295 7.52955 9.91574 8.44522 9.91574 9.4C9.91574 10.3548 10.295 11.2705 10.9702 11.9456C11.6453 12.6207 12.561 13 13.5157 13Z" stroke="#808080" stroke-width="1.8" stroke-linecap="round" stroke-linejoin="round"/>
</svg>
